<?xml version="1.0" encoding="UTF-8"?>
<svg id="Layer_1" data-name="Layer 1" xmlns="http://www.w3.org/2000/svg" viewBox="0 0 316.83 49.69">
  <defs>
    <style>
      .cls-1 {
        font-family: SFProRounded-Regular, 'SF Pro Rounded';
        font-size: 33.52px;
      }

      .cls-2 {
        letter-spacing: 0em;
      }

      .cls-3 {
        letter-spacing: 0em;
      }

      .cls-4 {
        letter-spacing: -.13em;
      }

      .cls-5 {
        fill: #fdd116;
      }

      .cls-6 {
        letter-spacing: -.03em;
      }

      .cls-7 {
        letter-spacing: -.03em;
      }

      .cls-8 {
        letter-spacing: 0em;
      }

      .cls-9 {
        letter-spacing: 0em;
      }
    </style>
  </defs>
  <path class="cls-5" d="M15.01,9.66l3.8-6.2c.34-.56,1.2-.24,1.11.4l-1.07,7.19c-.07.44.36.8.78.66l6.89-2.3c.62-.21,1.08.59.59,1.02l-5.44,4.82c-.34.3-.24.84.18,1.01l6.76,2.67c.61.24.45,1.14-.2,1.16l-7.27.19c-.45.01-.73.49-.51.89l3.47,6.39c.31.58-.39,1.16-.9.76l-5.69-4.52c-.35-.28-.87-.09-.96.35l-1.45,7.12c-.13.64-1.05.64-1.18,0l-1.45-7.12c-.09-.44-.61-.63-.96-.35l-5.69,4.52c-.51.41-1.21-.18-.9-.76l3.47-6.39c.21-.39-.06-.88-.51-.89l-7.27-.19c-.65-.02-.81-.92-.2-1.16l6.76-2.67c.42-.16.51-.71.18-1.01L1.88,10.43c-.49-.43-.03-1.23.59-1.02l6.89,2.3c.43.14.85-.21.78-.66l-1.07-7.19c-.1-.65.76-.96,1.11-.4l3.8,6.2c.23.38.79.38,1.02,0Z"/>
  <text class="cls-1" transform="translate(29.37 28.57)"><tspan x="0" y="0">Sa</tspan><tspan class="cls-9" x="36.73" y="0">r</tspan><tspan class="cls-3" x="46.73" y="0">a</tspan><tspan class="cls-8" x="63.56" y="0">w</tspan><tspan x="87.21" y="0">a</tspan><tspan class="cls-6" x="104.04" y="0">k</tspan><tspan class="cls-4" x="119.16" y="0">T</tspan><tspan x="134.22" y="0">alents</tspan><tspan class="cls-7" x="218.42" y="0">.</tspan><tspan class="cls-2" x="225.95" y="0">com</tspan></text>
</svg>